<?xml version="1.0" encoding="utf-8"?>
<!-- Generator: Adobe Illustrator 23.0.6, SVG Export Plug-In . SVG Version: 6.00 Build 0)  -->
<!DOCTYPE svg PUBLIC "-//W3C//DTD SVG 1.1//EN" "http://www.w3.org/Graphics/SVG/1.1/DTD/svg11.dtd" [
	<!ENTITY ns_extend "http://ns.adobe.com/Extensibility/1.0/">
	<!ENTITY ns_ai "http://ns.adobe.com/AdobeIllustrator/10.0/">
	<!ENTITY ns_graphs "http://ns.adobe.com/Graphs/1.0/">
	<!ENTITY ns_vars "http://ns.adobe.com/Variables/1.0/">
	<!ENTITY ns_imrep "http://ns.adobe.com/ImageReplacement/1.0/">
	<!ENTITY ns_sfw "http://ns.adobe.com/SaveForWeb/1.0/">
	<!ENTITY ns_custom "http://ns.adobe.com/GenericCustomNamespace/1.0/">
	<!ENTITY ns_adobe_xpath "http://ns.adobe.com/XPath/1.0/">
]>
<svg version="1.1" xmlns:x="&ns_extend;" xmlns:i="&ns_ai;" xmlns:graph="&ns_graphs;"
	 xmlns="http://www.w3.org/2000/svg" xmlns:xlink="http://www.w3.org/1999/xlink" x="0px" y="0px" viewBox="0 0 295.49 295.42"
	 style="enable-background:new 0 0 295.49 295.42;" xml:space="preserve">
<style type="text/css">
	.st0{display:none;}
	.st1{display:inline;}
	.st2{fill:url(#SVGID_1_);}
	.st3{opacity:0.42;fill:url(#SVGID_2_);}
	.st4{fill:#F4831F;}
	.st5{fill:#960AB4;}
	.st6{fill:#F98410;}
	.st7{fill:#FFCF00;}
</style>
	<g i:extraneous="self">
		<g id="Black_Background" class="st0">
			<rect x="-4081.02" y="357.33" class="st1" width="705.27" height="295.94"/>
			<rect x="-2189.04" y="2951.72" class="st1" width="705.27" height="295.94"/>
			<rect x="-2189.04" y="2179.63" class="st1" width="705.27" height="295.94"/>
			<rect x="-931.62" y="2618.42" class="st1" width="428.25" height="510.92"/>
			<rect x="-931.62" y="1817.74" class="st1" width="428.25" height="510.92"/>
			<rect x="-4082.28" y="1857.82" class="st1" width="614.14" height="480.62"/>
			<rect x="-3340.04" y="357.22" class="st1" width="705.27" height="295.94"/>
			<rect x="-3340.62" y="1857.82" class="st1" width="614.14" height="480.62"/>
			<rect x="-931.62" y="931.59" class="st1" width="428.25" height="510.92"/>
			<rect x="-931.62" y="0" class="st1" width="428.25" height="546.45"/>
			<rect x="-2189.04" y="1280.44" class="st1" width="705.27" height="295.94"/>
			<rect x="-2189.04" y="357.22" class="st1" width="705.27" height="295.94"/>
			<rect x="536.29" y="401.89" class="st1" width="470.86" height="206.3"/>
			<rect x="678.76" y="1.16" class="st1" width="295.37" height="295.37"/>
		</g>
		<g id="Layer_1">
			<g>
				<linearGradient id="SVGID_1_" gradientUnits="userSpaceOnUse" x1="147.745" y1="257.5319" x2="147.745" y2="39.3893">
					<stop  offset="0" style="stop-color:#960AB4"/>
					<stop  offset="0.511" style="stop-color:#F98410"/>
					<stop  offset="1" style="stop-color:#FFCF00"/>
				</linearGradient>
				<path class="st2" d="M147.75,257.53c-14,0-28-5.33-38.65-15.98l-54.44-54.44c-10.32-10.32-16.01-24.05-16.01-38.65
					c0-14.6,5.69-28.33,16.01-38.65l54.44-54.44c21.31-21.31,55.99-21.31,77.3,0l54.44,54.44c10.32,10.32,16.01,24.05,16.01,38.65
					c0,14.6-5.69,28.33-16.01,38.65l-54.44,54.44C175.74,252.2,161.74,257.53,147.75,257.53z M147.74,51.35
					c-10.93,0-21.87,4.16-30.19,12.49l-54.44,54.44c-8.06,8.06-12.51,18.78-12.51,30.19c0,11.4,4.44,22.13,12.51,30.19l54.44,54.44
					c16.65,16.65,43.73,16.65,60.38,0l54.44-54.44c8.06-8.06,12.51-18.79,12.51-30.19c0-11.4-4.44-22.13-12.51-30.19l-54.44-54.44
					C169.61,55.51,158.68,51.35,147.74,51.35z"/>
				<linearGradient id="SVGID_2_" gradientUnits="userSpaceOnUse" x1="78.9783" y1="214.6738" x2="140.1402" y2="243.1941">
					<stop  offset="0" style="stop-color:#FBAE17"/>
					<stop  offset="1" style="stop-color:#B92025"/>
				</linearGradient>
				<polygon class="st3" points="115.96,231.49 117.55,233.09 115.96,231.49 				"/>
				<polygon class="st4" points="115.96,231.49 117.55,233.09 115.96,231.49 				"/>
				<path class="st5" d="M225.27,156.99c-4.18-22.52-13.13-36.87-14.89-52.59c-0.54-4.78-0.41-9.68,0.71-14.98
					c0.17-0.78,0.35-1.56,0.56-2.36c2.96-11.25,10.82-19.44,10.82-19.44s-14.24-2.03-31.5,5.02c-1.97,0.81-3.99,1.73-6.02,2.79
					c-0.72,2.02-1.4,4.05-2.03,6.07c-1.08,3.44-2.05,6.88-2.85,10.27c-3.34,14.25-1.58,26.63,2.93,39.66
					c4.23,12.24,8.93,24.53,9.55,38.03c1.17,25.09-8.02,53.08-25,71.28c3.74-1.96,7.25-4.5,10.39-7.64l47.94-47.94
					C227.16,175.76,226.98,166.18,225.27,156.99z"/>
				<path class="st6" d="M165.88,53.79c-3.24,1.97-6.66,4.18-10.24,6.67c-0.67,0.47-1.33,0.94-1.98,1.41
					c-29.16,20.9-47.01,47.54-50.25,53.89c-0.64,1.25-1.27,2.62-1.87,4.04c0.58,4.74,1.84,9.44,3.99,13.78
					c7.75,15.68,18.41,29.33,27.06,44.37c4.07,7.07,6.78,14.02,8.09,21.35c1.07,5.98,1.21,12.23,0.41,18.99
					c-0.18,1.48-0.38,2.98-0.65,4.52c-1.22,7.02-2.94,14.08-5.12,20.94c2.38,0.72,4.81,1.22,7.26,1.52
					c8.48,1.03,17.22-0.47,24.96-4.52c16.97-18.2,26.16-46.19,25-71.28c-0.63-13.5-5.32-25.79-9.55-38.03
					c-4.5-13.03-6.26-25.41-2.93-39.66c0.79-3.39,1.76-6.82,2.85-10.27c0.64-2.02,1.32-4.05,2.03-6.07
					c0.71-1.99,1.45-3.97,2.24-5.95c3.05-7.66,6.59-15.12,10.35-21.88c1.05-1.89,4.73-9.53,7.06-9.71
					C204.59,37.89,190.11,39.05,165.88,53.79z"/>
				<path class="st7" d="M140.68,199.29c-1.32-7.33-4.02-14.28-8.09-21.35c-8.65-15.04-19.31-28.68-27.06-44.37
					c-2.15-4.34-3.41-9.04-3.99-13.78c-1.19-9.72,0.51-19.62,3.45-26.96c0,0-23.1,12.37-30.71,46.8
					c-3.62,16.36-3.39,34.29,0.5,50.67l42.78,42.78c2.12,2.12,4.41,3.96,6.82,5.54c3.43,2.25,7.12,3.95,10.94,5.1
					c2.18-6.86,3.9-13.92,5.12-20.94c0.27-1.54,0.47-3.04,0.65-4.52C141.89,211.51,141.75,205.27,140.68,199.29z"/>
			</g>
		</g>
	</g>
</svg>
